<svg xmlns="http://www.w3.org/2000/svg" data-name="Layer 2" viewBox="0 0 173.67 75.93"><g data-name="Layer 1"><path fill="red" d="M164.73 4.13C112.53-.98 61-1.71 8.8 3.99 4.77 4.46.78 8.47.34 12.8-.76 29.75 1 45.38 2.51 62.19c.11 4.84 0 7.49-1.2 13.74 2.95-.82 4.36-1.18 7.1-1.79.03 0 .05 0 .08-.01 34.77-7.03 50.53-1.49 75.2.55 26.75 2.21 53.56-2.57 81.08-4.78 4.02-.33 7.77-4.06 8.14-8.23 1.12-16.44.96-32.74-.17-49.18-.34-4.22-3.98-7.95-8-8.35"/><path fill="#fff" d="M30.61 33.62s0 1.88-1.88 1.88H23.8v-5.35h4.93c1.88 0 1.88 1.92 1.88 1.92v1.55zm5.51.04v-1.62c0-7.13-6.65-7.13-6.65-7.13H18.19v23.67h5.62v-7.79h1.58s3.45 4.56 4.72 6.03c1.75 2.64 5.37.91 5.37.91l1.31-.77-4.93-6.68c2.02-.7 4.26-2.33 4.26-6.61m13.57 5.49c-.6-1.47-4.59 0-4.59 0l2.28-6.42s2.74 7.08 2.32 6.42m2.07-10.01c-1.35-4.88-7.26-4.2-7.26-4.2s-6.44 17.88-6.67 18.68c-1.31 3.38.67 4.84 2.06 5.26 1.4.56 1.77.65 1.77.65l1.62-5.17s7.34-2.64 8.23 0c.32.95 1.73 5.17 1.73 5.17l2.02-.77s3.31-1.17 1.46-5.59c-1.72-4.9-4.33-12.32-4.97-14.03m49.61.52c.53 0 2.14.22 4.17.8 3.63.79 4.93-2.03 4.93-2.03l.57-1.25c-.96-.48-5.33-2.66-10.73-2.66-1.58 0-6.62.37-6.62 6.68v11.04c0 6.31 5.04 6.65 6.62 6.65 5.37 0 10.07-2.33 10.73-2.73l-.58-1.23s-1.97-3.02-5.36-1.86c-1.82.48-3.24.69-3.73.69-1.54 0-2.1-.81-2.1-1.59V31.25c0-.74.55-1.59 2.1-1.59m23.05 12.08c0 .59-.26 1.99-3.6 1.99s-3.6-1.4-3.6-1.99V31.7c0-.48.26-2.14 3.6-2.14s3.6 1.66 3.6 2.14v10.04zm-3.6-17.39c-8.82 0-9.23 5.54-9.23 6.57V42.4c0 1 0 6.5 9.23 6.5s9.23-6.5 9.23-6.5V30.92c0-1.03 0-6.57-9.23-6.57m28.53 2.88c-.9 1.45-5.56 9.01-5.56 9.01s-5.03-8.21-5.45-8.74c-2.59-2.7-6.28-1.82-6.28-1.82l.51 4.32v14.85s-.34 3.72 2.97 3.76c1.36.04 2.65 0 2.65 0V37.46l5.55 8.12 5.59-8.12v11.15s1.11-.04 2.76 0c2.73-.14 2.86-3.66 2.86-3.66V30l.51-4.32s-4.06-.78-6.13 1.55m-61.39-2.29h-11.9s.07 16.49 0 18.69c-.08 5.43 4.01 4.91 4.01 4.91h1.57v-9.47c.45 0 1.39-.01 3.39.02 3.36.05 2.92-3.19 2.92-3.19v-1.65h-6.32v-4.09h11.1s.03-.31 0-1.63c-.12-4.25-4.79-3.58-4.79-3.58m-17.65-.01h-11.9s.07 16.49 0 18.69c-.08 5.43 4.01 4.91 4.01 4.91h1.57v-9.46c.25-.01 1.06-.03 3.68.01 3.36.05 2.92-3.19 2.92-3.19v-1.65h-6.61v-4.09h11.1s.03-.31 0-1.63c-.12-4.25-4.79-3.58-4.79-3.58"/></g></svg>